<svg width="48" height="48" fill="none" xmlns="http://www.w3.org/2000/svg"><rect width="48" height="48" rx="12" fill="url(#paint0_linear_120_3974)" fill-opacity=".1"/><path fill-rule="evenodd" clip-rule="evenodd" d="M18.552 12.334h10.896c3.968 0 6.208 2.25 6.22 6.218V29.45c0 3.966-2.252 6.218-6.22 6.218H18.552c-3.967 0-6.218-2.252-6.218-6.218V18.552c0-3.968 2.25-6.218 6.218-6.218zm5.506 18.503a.964.964 0 00.969-.875V18.074a.952.952 0 00-.442-.922.98.98 0 00-1.495.922v11.888c.06.502.478.875.968.875zm5.367 0c.49 0 .909-.373.968-.875v-3.826a.978.978 0 00-1.493-.922.94.94 0 00-.443.922v3.826a.964.964 0 00.968.875zm-9.835-.875a.964.964 0 01-.968.875.963.963 0 01-.967-.875v-8.061a.981.981 0 01.455-.922.96.96 0 011.027 0c.313.198.49.559.453.922v8.061z" fill="url(#paint1_linear_120_3974)"/><defs><linearGradient id="paint0_linear_120_3974" x1="3.192" y1="19.5" x2="42.025" y2="22.749" gradientUnits="userSpaceOnUse"><stop stop-color="#68C9FF"/><stop offset=".995" stop-color="#D1B5FF"/></linearGradient><linearGradient id="paint1_linear_120_3974" x1="13.886" y1="21.813" x2="32.763" y2="23.392" gradientUnits="userSpaceOnUse"><stop stop-color="#68C9FF"/><stop offset=".995" stop-color="#D1B5FF"/></linearGradient></defs></svg>