<svg width="19" height="17" fill="none" xmlns="http://www.w3.org/2000/svg"><path d="M3.452 3.555C4.076 3.5 4.865 3.5 5.926 3.5h1.482c2.074 0 3.111 0 3.903.406a3.713 3.713 0 011.619 1.627c.404.796.404 1.839.404 3.924v2.01c0 .208 0 .312-.005.4a3.724 3.724 0 01-2.02 3.143l1.142.815c.746.532 1.726-.236 1.386-1.086a.917.917 0 01.852-1.257h.501a3.14 3.14 0 003.144-3.139V6.824c0-2.33 0-3.495-.455-4.385A4.164 4.164 0 0016.06.62C15.166.167 14 .167 11.666.167H10c-2.333 0-3.5 0-4.391.454a4.164 4.164 0 00-1.821 1.818c-.165.322-.27.68-.336 1.116z" fill="url(#paint0_linear_2233_2461)"/><path fill-rule="evenodd" clip-rule="evenodd" d="M12.147 6.127c.353.703.353 1.623.353 3.463v1.773c0 .183 0 .275-.004.353-.079 1.692-1.414 3.046-3.083 3.126-.077.003-.178.003-.38.003H8.98a3.211 3.211 0 00-1.846.6l-.034.025-1.693 1.225c-.58.42-1.342-.186-1.077-.857a.723.723 0 00-.663-.993h-.39c-1.35 0-2.445-1.109-2.445-2.478V9.59c0-1.84 0-2.76.354-3.463.31-.618.806-1.12 1.416-1.435.693-.358 1.6-.358 3.416-.358h1.296c1.815 0 2.722 0 3.416.358.61.315 1.105.817 1.416 1.435zM4.167 11a.833.833 0 100-1.666.833.833 0 000 1.666zm3.333-.833a.833.833 0 11-1.666 0 .833.833 0 011.666 0zM9.167 11a.833.833 0 100-1.666.833.833 0 000 1.666z" fill="url(#paint1_linear_2233_2461)"/><defs><linearGradient id="paint0_linear_2233_2461" x1="1.997" y1="6.938" x2="16.145" y2="8.181" gradientUnits="userSpaceOnUse"><stop stop-color="#68C9FF"/><stop offset=".995" stop-color="#D1B5FF"/></linearGradient><linearGradient id="paint1_linear_2233_2461" x1="1.997" y1="6.938" x2="16.145" y2="8.181" gradientUnits="userSpaceOnUse"><stop stop-color="#68C9FF"/><stop offset=".995" stop-color="#D1B5FF"/></linearGradient></defs></svg>