<svg width="16" height="15" fill="none" xmlns="http://www.w3.org/2000/svg"><path d="M3 3.958a3.125 3.125 0 116.25 0 3.125 3.125 0 01-6.25 0z" fill="url(#paint0_linear_2233_2443)"/><path d="M8.916 1.151a3.946 3.946 0 011.167 2.807c0 1.097-.446 2.09-1.167 2.807a3.125 3.125 0 100-5.614z" fill="url(#paint1_linear_2233_2443)"/><path d="M.5 11.458c0-1.726 1.4-3.125 3.125-3.125h5a3.125 3.125 0 110 6.25h-5A3.125 3.125 0 01.5 11.458z" fill="url(#paint2_linear_2233_2443)"/><path d="M12.583 11.458a3.94 3.94 0 01-.73 2.292h.939a3.125 3.125 0 100-6.25H8.625a3.958 3.958 0 013.958 3.958z" fill="url(#paint3_linear_2233_2443)"/><defs><linearGradient id="paint0_linear_2233_2443" x1="1.525" y1="6.419" x2="13.975" y2="7.587" gradientUnits="userSpaceOnUse"><stop stop-color="#68C9FF"/><stop offset=".995" stop-color="#D1B5FF"/></linearGradient><linearGradient id="paint1_linear_2233_2443" x1="1.525" y1="6.419" x2="13.975" y2="7.587" gradientUnits="userSpaceOnUse"><stop stop-color="#68C9FF"/><stop offset=".995" stop-color="#D1B5FF"/></linearGradient><linearGradient id="paint2_linear_2233_2443" x1="1.525" y1="6.419" x2="13.975" y2="7.587" gradientUnits="userSpaceOnUse"><stop stop-color="#68C9FF"/><stop offset=".995" stop-color="#D1B5FF"/></linearGradient><linearGradient id="paint3_linear_2233_2443" x1="1.525" y1="6.419" x2="13.975" y2="7.587" gradientUnits="userSpaceOnUse"><stop stop-color="#68C9FF"/><stop offset=".995" stop-color="#D1B5FF"/></linearGradient></defs></svg>